<?xml version="1.0" encoding="UTF-8" ?>
<!DOCTYPE svg PUBLIC "-//W3C//DTD SVG 1.1//EN" "http://www.w3.org/Graphics/SVG/1.1/DTD/svg11.dtd">
<svg width="339pt" height="337pt" viewBox="0 0 339 337" version="1.1" xmlns="http://www.w3.org/2000/svg">
<g id="#000000ff">
<path fill="#000000" opacity="1.00" d=" M 48.25 0.00 L 50.90 0.00 L 49.85 1.85 L 51.65 1.32 C 90.51 40.47 129.57 79.45 168.66 118.37 L 168.27 120.40 C 188.79 100.25 208.98 79.74 229.38 59.45 C 248.65 40.09 268.09 20.90 287.26 1.45 C 288.77 1.54 290.29 1.60 291.80 1.43 C 292.80 2.01 292.90 2.74 292.12 3.63 C 307.28 18.73 322.33 33.96 337.57 48.99 C 337.93 48.74 338.64 48.25 339.00 48.01 L 339.00 50.96 C 338.64 50.73 337.91 50.28 337.55 50.05 C 318.00 69.33 298.91 89.07 279.39 108.39 C 259.07 128.79 238.57 149.03 218.37 169.54 C 245.16 196.46 272.07 223.26 298.91 250.13 C 311.99 262.91 324.47 276.30 337.62 289.01 C 337.96 288.75 338.65 288.23 339.00 287.97 L 339.00 290.96 C 338.64 290.73 337.91 290.29 337.55 290.06 C 334.06 293.44 330.99 297.27 327.46 300.59 C 327.10 300.66 326.37 300.81 326.00 300.88 C 318.39 308.07 310.85 315.37 304.02 323.31 C 298.37 325.82 295.24 331.80 290.24 335.32 L 290.87 336.72 L 288.14 336.72 L 288.77 335.32 C 248.81 295.91 209.37 255.94 169.56 216.38 C 129.60 255.82 90.25 295.92 50.25 335.32 L 50.88 336.76 L 48.11 336.76 C 49.80 334.46 45.64 333.47 44.73 331.54 C 44.37 331.55 43.64 331.56 43.28 331.57 C 40.87 329.35 38.96 326.15 35.90 325.13 C 27.97 316.97 19.72 309.13 11.87 300.89 C 10.56 300.91 9.34 300.13 9.15 298.76 C 8.09 296.60 6.09 295.18 4.63 293.32 C 3.16 294.36 0.08 291.31 1.98 289.93 L 0.00 290.75 L 0.00 288.05 L 1.90 289.26 L 1.30 287.38 C 23.98 265.05 46.35 242.38 68.91 219.92 C 86.05 202.68 103.39 185.63 120.41 168.27 L 118.38 168.66 C 79.45 129.56 40.44 90.52 1.32 51.62 L 1.92 49.97 L 0.00 50.72 L 0.00 48.09 L 1.92 49.22 L 1.33 47.37 C 16.14 32.86 30.68 18.06 45.39 3.43 C 46.60 2.69 47.25 -0.10 49.08 1.95 L 48.25 0.00 Z" />
</g>
</svg>
