<?xml version="1.0" encoding="UTF-8" ?>
<!DOCTYPE svg PUBLIC "-//W3C//DTD SVG 1.1//EN" "http://www.w3.org/Graphics/SVG/1.1/DTD/svg11.dtd">
<svg width="336pt" height="386pt" viewBox="0 0 336 386" version="1.1" xmlns="http://www.w3.org/2000/svg">
<g id="#000000ff">
<path fill="#000000" opacity="1.00" d=" M 215.96 0.87 C 239.97 0.85 263.98 0.86 287.99 0.87 C 288.02 16.87 287.98 32.87 288.01 48.86 C 304.01 48.88 320.00 48.83 336.00 48.89 L 336.00 120.74 C 320.01 121.06 304.01 120.78 288.01 120.89 C 287.98 136.88 288.02 152.88 287.99 168.88 C 279.90 168.89 271.80 168.85 263.71 168.90 C 263.67 240.96 263.72 313.03 263.68 385.09 C 175.79 385.18 87.89 385.14 0.00 385.11 L 0.00 25.26 C 71.98 24.90 143.96 25.28 215.94 25.07 C 215.97 17.00 215.93 8.94 215.96 0.87 M 240.14 25.20 C 239.92 41.13 240.12 57.06 240.04 72.99 C 224.14 73.01 208.23 73.00 192.33 73.00 C 192.35 81.15 192.23 89.30 192.40 97.45 C 208.27 97.56 224.15 97.45 240.03 97.50 C 240.08 113.36 240.03 129.21 240.05 145.06 C 247.92 145.16 255.80 145.17 263.67 145.05 C 263.75 129.20 263.56 113.35 263.77 97.51 C 279.92 97.46 296.07 97.53 312.22 97.47 C 312.41 89.32 312.26 81.16 312.30 73.01 C 296.09 72.99 279.89 73.01 263.69 72.99 C 263.63 57.07 263.75 41.15 263.63 25.22 C 255.80 25.07 247.97 25.10 240.14 25.20 Z" />
</g>
</svg>
