<?xml version="1.0" encoding="UTF-8" ?>
<!DOCTYPE svg PUBLIC "-//W3C//DTD SVG 1.1//EN" "http://www.w3.org/Graphics/SVG/1.1/DTD/svg11.dtd">
<svg width="358pt" height="358pt" viewBox="0 0 358 358" version="1.1" xmlns="http://www.w3.org/2000/svg">
<g id="#3737374f">
<path fill="#373737" opacity="0.31" d=" M 264.76 0.00 L 275.28 0.00 C 280.23 2.85 284.14 6.86 287.82 11.16 C 292.81 14.80 296.11 20.23 301.14 23.87 C 305.37 29.62 311.53 33.45 315.89 39.11 C 321.21 43.75 325.65 49.27 331.06 53.80 C 336.44 60.10 343.01 65.27 348.32 71.64 C 352.58 74.29 355.21 78.62 358.00 82.64 L 358.00 92.27 C 356.29 94.77 354.84 97.52 352.55 99.57 C 328.33 123.68 304.24 147.92 280.03 172.03 C 279.26 173.22 277.51 173.51 276.65 172.25 C 271.44 166.89 266.06 161.69 260.84 156.33 C 260.10 155.41 258.55 154.52 259.10 153.12 C 280.71 131.33 302.55 109.78 324.14 87.99 C 323.99 87.66 323.68 87.00 323.52 86.67 C 307.91 70.89 292.08 55.35 276.51 39.54 C 274.35 37.69 272.54 35.01 269.96 33.92 C 262.48 40.16 256.11 47.75 248.89 54.34 C 255.40 62.09 263.37 68.44 269.66 76.37 C 270.35 80.64 271.12 87.67 265.62 89.04 C 269.52 85.73 271.17 79.58 267.65 75.39 C 261.07 68.51 254.16 61.96 247.56 55.11 C 247.57 54.98 247.59 54.72 247.60 54.59 C 255.12 47.06 262.67 39.54 270.20 32.01 L 270.71 32.21 C 289.13 50.53 307.44 68.96 325.86 87.30 L 325.79 87.78 C 303.89 109.93 281.67 131.78 259.79 153.94 C 265.81 160.12 271.82 166.33 278.09 172.24 C 303.26 147.39 328.14 122.22 353.22 97.26 C 356.84 94.05 358.38 88.77 357.03 84.11 C 356.06 79.94 352.53 77.23 349.69 74.30 C 326.35 50.98 303.01 27.65 279.69 4.30 C 275.06 -0.50 266.58 -1.03 261.71 3.70 C 237.14 28.14 212.71 52.72 188.16 77.18 C 187.40 78.05 186.29 78.71 185.88 79.83 C 191.57 85.53 197.23 91.26 202.92 96.96 C 203.80 97.87 205.15 98.13 205.99 99.10 C 212.36 105.40 218.59 111.84 225.04 118.05 C 228.02 120.64 232.09 120.25 235.55 119.02 C 233.20 121.90 229.07 120.72 226.01 119.89 C 217.99 112.97 211.36 104.46 202.92 97.98 C 196.87 92.34 191.40 86.14 185.27 80.59 C 185.19 80.22 185.02 79.46 184.94 79.09 C 186.72 76.60 189.32 74.74 191.31 72.39 C 214.14 49.53 236.99 26.70 259.83 3.85 C 261.22 2.25 263.29 1.52 264.76 0.00 Z" />
<path fill="#373737" opacity="0.31" d=" M 52.75 10.80 C 61.49 7.96 70.67 5.74 79.95 6.00 C 91.61 17.29 103.15 28.95 114.47 40.53 C 115.88 42.43 117.48 44.29 119.58 45.42 C 131.49 58.63 144.79 70.89 157.16 83.83 C 158.96 85.85 161.72 87.41 162.52 90.08 C 150.49 78.61 139.03 66.55 127.18 54.88 C 111.39 38.94 95.45 23.14 79.67 7.19 C 69.41 6.11 59.10 9.53 49.54 13.11 C 49.40 11.40 51.79 11.69 52.75 10.80 Z" />
<path fill="#373737" opacity="0.31" d=" M 45.73 15.01 C 44.99 13.64 48.25 12.29 49.31 13.18 C 48.38 14.15 47.00 14.65 45.73 15.01 Z" />
<path fill="#373737" opacity="0.31" d=" M 44.34 14.95 L 45.67 15.03 C 33.80 21.44 23.91 31.17 17.03 42.76 C 17.49 37.94 22.24 34.67 24.51 30.50 C 30.22 24.27 36.76 18.76 44.34 14.95 Z" />
<path fill="#373737" opacity="0.31" d=" M 14.18 48.25 C 12.98 46.42 15.30 42.79 17.02 42.80 C 16.31 44.70 15.38 46.61 14.18 48.25 Z" />
<path fill="#373737" opacity="0.31" d=" M 13.19 48.65 L 14.06 48.57 C 10.03 57.98 7.70 68.04 7.02 78.25 C 8.53 80.53 10.85 82.17 12.67 84.22 C 36.13 107.81 59.60 131.39 83.09 154.96 C 102.98 175.19 123.26 195.04 143.03 215.37 L 142.18 215.48 C 96.91 170.13 51.84 124.64 6.24 79.61 C 7.35 75.42 6.48 70.99 7.74 66.80 C 8.68 60.56 10.39 54.34 13.19 48.65 Z" />
<path fill="#373737" opacity="0.31" d=" M 217.68 84.96 C 222.69 78.91 228.82 73.67 234.26 67.92 C 241.39 74.35 247.88 81.57 254.89 88.18 C 257.87 90.78 262.12 90.25 265.59 89.07 C 261.30 93.25 254.10 90.25 251.05 85.91 C 245.09 80.77 240.22 74.53 234.08 69.58 C 228.86 74.38 223.61 79.43 219.00 84.76 C 223.79 90.08 229.26 94.72 234.07 100.02 C 236.18 102.27 238.90 104.12 239.99 107.14 C 240.01 109.70 240.16 112.28 239.89 114.82 C 238.78 116.52 238.05 119.08 235.58 118.99 C 239.31 115.83 241.41 110.09 238.19 105.83 C 231.55 98.70 224.29 92.13 217.68 84.96 Z" />
<path fill="#373737" opacity="0.31" d=" M 162.89 90.46 C 166.15 92.05 168.54 95.43 171.21 97.98 C 219.90 146.90 268.78 195.62 317.58 244.47 C 318.75 245.57 320.71 246.69 319.89 248.62 C 315.64 250.39 311.17 251.54 306.86 253.14 L 305.36 252.87 C 309.87 250.99 314.62 249.70 319.16 247.85 C 281.47 209.63 243.40 171.71 205.59 133.58 C 191.40 119.17 176.85 105.07 162.89 90.46 Z" />
<path fill="#373737" opacity="0.31" d=" M 75.86 187.82 C 76.90 186.83 77.86 185.74 79.08 184.96 C 81.31 184.74 82.20 187.35 83.69 188.55 C 95.59 200.24 107.18 212.25 119.10 223.93 C 121.51 226.34 121.12 230.01 120.92 233.11 C 120.70 233.17 120.28 233.29 120.07 233.35 C 119.84 231.32 120.44 229.28 119.86 227.28 C 118.81 224.78 116.63 223.09 114.80 221.19 C 109.84 216.15 104.79 211.20 99.81 206.17 C 93.74 199.19 86.82 193.01 80.50 186.26 C 80.21 186.20 79.63 186.08 79.35 186.02 C 54.30 211.06 29.25 236.11 4.20 261.16 C -0.63 265.97 -0.32 274.73 4.66 279.34 C 29.01 303.67 53.34 328.02 77.67 352.37 C 82.22 358.03 91.46 358.92 96.70 353.76 C 121.82 328.62 146.99 303.52 172.07 278.34 C 165.96 272.22 159.83 266.13 153.77 259.98 L 154.81 259.97 C 160.28 264.54 164.79 270.14 170.11 274.89 C 171.16 276.08 172.85 277.11 173.00 278.83 L 172.60 279.44 C 147.95 304.18 123.20 328.82 98.55 353.55 C 96.52 355.59 93.76 356.59 91.31 358.00 L 83.84 358.00 C 77.95 355.26 74.08 349.90 69.48 345.54 C 50.75 326.94 32.18 308.19 13.46 289.59 C 9.00 284.45 3.02 280.61 0.00 274.32 L 0.00 265.69 C 2.36 260.45 6.95 256.89 10.85 252.86 C 32.50 231.16 54.20 209.51 75.86 187.82 Z" />
<path fill="#373737" opacity="0.31" d=" M 143.03 215.38 C 177.87 249.88 212.26 284.84 247.02 319.43 L 247.73 319.27 C 250.79 310.26 254.22 301.38 257.48 292.44 C 260.08 291.47 262.71 290.38 265.45 289.93 L 265.29 290.89 C 262.84 291.30 260.43 292.07 258.20 293.15 C 254.93 302.00 251.38 310.80 248.65 319.84 C 247.13 320.31 245.26 320.18 244.43 318.62 C 233.25 307.09 221.59 296.02 210.50 284.41 C 205.58 280.06 201.70 274.66 196.66 270.37 C 181.16 254.59 165.38 239.01 149.88 223.18 C 147.56 220.67 144.21 218.64 143.03 215.38 Z" />
<path fill="#373737" opacity="0.31" d=" M 70.12 232.07 C 75.10 227.15 79.95 222.11 85.02 217.29 C 92.10 223.61 98.49 230.82 105.44 237.34 C 109.37 240.76 115.68 239.57 118.93 235.80 C 118.95 236.08 119.01 236.63 119.04 236.91 C 115.11 241.22 107.01 241.57 103.51 236.57 C 97.15 230.79 91.63 224.13 85.03 218.63 C 79.63 223.42 74.58 228.77 69.54 233.99 C 75.27 240.70 81.99 246.45 88.01 252.89 C 93.41 256.90 91.92 268.35 84.64 269.05 C 85.95 267.87 87.62 267.10 88.69 265.66 C 91.09 262.18 90.97 256.93 87.86 253.92 C 81.47 247.32 74.85 240.95 68.42 234.39 C 68.36 233.30 69.53 232.79 70.12 232.07 Z" />
<path fill="#373737" opacity="0.31" d=" M 119.28 234.98 C 119.39 234.75 119.63 234.27 119.74 234.04 C 119.63 234.27 119.39 234.75 119.28 234.98 Z" />
<path fill="#373737" opacity="0.31" d=" M 55.24 247.04 C 60.88 252.28 66.16 257.92 71.67 263.30 C 73.78 265.24 75.56 267.71 78.28 268.85 C 80.35 269.37 82.48 269.08 84.58 269.08 C 83.57 270.69 81.44 269.81 79.91 270.03 C 75.31 270.12 73.00 265.71 69.97 263.02 C 64.81 258.46 60.56 252.94 55.15 248.64 C 52.47 250.46 50.47 253.10 48.08 255.27 C 43.40 260.24 38.12 264.73 33.82 269.98 C 34.21 271.19 35.36 271.91 36.14 272.85 C 53.25 289.85 70.28 306.90 87.27 324.00 C 87.63 323.93 88.33 323.80 88.68 323.73 C 108.27 303.61 128.39 284.04 148.09 264.04 C 149.71 262.54 150.93 259.79 153.49 259.99 C 131.77 282.02 109.82 303.83 87.90 325.65 C 69.38 307.33 51.04 288.82 32.60 270.42 C 32.20 269.31 33.56 268.78 34.11 268.07 C 41.18 261.09 48.12 253.98 55.24 247.04 Z" />
<path fill="#373737" opacity="0.31" d=" M 292.44 257.54 C 296.55 255.57 301.02 254.33 305.34 252.88 L 305.35 253.87 C 301.28 255.25 297.06 256.34 293.17 258.18 C 290.55 266.76 287.08 275.05 284.69 283.70 C 281.92 285.98 277.86 287.03 274.29 287.00 C 277.29 285.58 280.59 284.96 283.64 283.67 C 286.49 274.93 289.54 266.26 292.44 257.54 Z" />
<path fill="#373737" opacity="0.31" d=" M 268.76 288.87 C 270.24 287.72 272.28 287.25 274.10 287.01 C 274.21 288.66 270.24 289.58 268.76 288.87 Z" />
<path fill="#373737" opacity="0.31" d=" M 265.94 289.86 C 266.50 289.67 267.62 289.31 268.18 289.13 L 268.06 289.89 C 267.53 289.89 266.47 289.87 265.94 289.86 Z" />
<path fill="#373737" opacity="0.31" d=" M 319.72 295.17 C 323.89 293.51 328.22 291.25 332.70 291.10 C 335.27 302.05 338.50 312.80 341.32 323.69 C 342.56 329.05 344.56 334.35 344.85 339.87 C 343.99 341.41 344.28 343.57 342.73 344.65 C 335.95 346.30 329.50 343.11 322.95 341.85 C 314.42 339.28 305.74 337.23 297.18 334.76 C 295.18 333.81 292.83 334.30 291.00 332.92 C 291.18 325.93 294.91 319.49 298.12 313.41 L 299.01 313.70 C 295.81 319.50 292.88 325.55 291.48 332.06 L 292.20 332.60 C 303.85 335.67 315.47 338.85 327.11 341.97 C 331.87 343.00 336.75 345.33 341.67 343.83 C 344.79 341.52 344.26 337.23 343.15 334.01 C 339.36 319.97 335.75 305.88 331.79 291.90 C 327.47 292.62 323.55 294.77 319.42 296.13 L 319.72 295.17 Z" />
<path fill="#373737" opacity="0.31" d=" M 318.29 295.97 L 319.04 296.26 C 318.79 296.38 318.28 296.60 318.03 296.72 L 318.29 295.97 Z" />
<path fill="#373737" opacity="0.31" d=" M 312.69 298.86 C 314.35 298.15 315.82 296.67 317.73 296.86 C 310.43 301.09 303.64 306.42 299.06 313.63 C 298.23 311.68 300.66 310.81 301.11 309.16 C 304.25 305.04 308.33 301.64 312.69 298.86 Z" />
</g>
<g id="#000000ff">
<path fill="#000000" opacity="1.00" d=" M 261.71 3.70 C 266.58 -1.03 275.06 -0.50 279.69 4.30 C 303.01 27.65 326.35 50.98 349.69 74.30 C 352.53 77.23 356.06 79.94 357.03 84.11 C 358.38 88.77 356.84 94.05 353.22 97.26 C 328.14 122.22 303.26 147.39 278.09 172.24 C 271.82 166.33 265.81 160.12 259.79 153.94 C 281.67 131.78 303.89 109.93 325.79 87.78 L 325.86 87.30 C 307.44 68.96 289.13 50.53 270.71 32.21 L 270.20 32.01 C 262.67 39.54 255.12 47.06 247.60 54.59 C 247.59 54.72 247.57 54.98 247.56 55.11 C 254.16 61.96 261.07 68.51 267.65 75.39 C 271.17 79.58 269.52 85.73 265.62 89.04 L 265.59 89.07 C 262.12 90.25 257.87 90.78 254.89 88.18 C 247.88 81.57 241.39 74.35 234.26 67.92 C 228.82 73.67 222.69 78.91 217.68 84.96 C 224.29 92.13 231.55 98.70 238.19 105.83 C 241.41 110.09 239.31 115.83 235.58 118.99 L 235.55 119.02 C 232.09 120.25 228.02 120.64 225.04 118.05 C 218.59 111.84 212.36 105.40 205.99 99.10 C 205.15 98.13 203.80 97.87 202.92 96.96 C 197.23 91.26 191.57 85.53 185.88 79.83 C 186.29 78.71 187.40 78.05 188.16 77.18 C 212.71 52.72 237.14 28.14 261.71 3.70 Z" />
<path fill="#000000" opacity="1.00" d=" M 49.54 13.11 C 59.10 9.53 69.41 6.11 79.67 7.19 C 95.45 23.14 111.39 38.94 127.18 54.88 C 139.03 66.55 150.49 78.61 162.52 90.08 C 162.61 90.17 162.80 90.36 162.89 90.46 C 176.85 105.07 191.40 119.17 205.59 133.58 C 243.40 171.71 281.47 209.63 319.16 247.85 C 314.62 249.70 309.87 250.99 305.36 252.87 L 305.34 252.88 C 301.02 254.33 296.55 255.57 292.44 257.54 C 289.54 266.26 286.49 274.93 283.64 283.67 C 280.59 284.96 277.29 285.58 274.29 287.00 L 274.10 287.01 C 272.28 287.25 270.24 287.72 268.76 288.87 L 268.18 289.13 C 267.62 289.31 266.50 289.67 265.94 289.86 L 265.45 289.93 C 262.71 290.38 260.08 291.47 257.48 292.44 C 254.22 301.38 250.79 310.26 247.73 319.27 L 247.02 319.43 C 212.26 284.84 177.87 249.88 143.03 215.38 L 143.03 215.37 C 123.26 195.04 102.98 175.19 83.09 154.96 C 59.60 131.39 36.13 107.81 12.67 84.22 C 10.85 82.17 8.53 80.53 7.02 78.25 C 7.70 68.04 10.03 57.98 14.06 48.57 L 14.18 48.25 C 15.38 46.61 16.31 44.70 17.02 42.80 L 17.03 42.76 C 23.91 31.17 33.80 21.44 45.67 15.03 L 45.73 15.01 C 47.00 14.65 48.38 14.15 49.31 13.18 L 49.54 13.11 Z" />
<path fill="#000000" opacity="1.00" d=" M 79.35 186.02 C 79.63 186.08 80.21 186.20 80.50 186.26 C 86.82 193.01 93.74 199.19 99.81 206.17 C 104.79 211.20 109.84 216.15 114.80 221.19 C 116.63 223.09 118.81 224.78 119.86 227.28 C 120.44 229.28 119.84 231.32 120.07 233.35 L 119.74 234.04 C 119.63 234.27 119.39 234.75 119.28 234.98 L 118.93 235.80 C 115.68 239.57 109.37 240.76 105.44 237.34 C 98.49 230.82 92.10 223.61 85.02 217.29 C 79.95 222.11 75.10 227.15 70.12 232.07 C 69.53 232.79 68.36 233.30 68.42 234.39 C 74.85 240.95 81.47 247.32 87.86 253.92 C 90.97 256.93 91.09 262.18 88.69 265.66 C 87.62 267.10 85.95 267.87 84.64 269.05 L 84.58 269.08 C 82.48 269.08 80.35 269.37 78.28 268.85 C 75.56 267.71 73.78 265.24 71.67 263.30 C 66.16 257.92 60.88 252.28 55.24 247.04 C 48.12 253.98 41.18 261.09 34.11 268.07 C 33.56 268.78 32.20 269.31 32.60 270.42 C 51.04 288.82 69.38 307.33 87.90 325.65 C 109.82 303.83 131.77 282.02 153.49 259.99 L 153.77 259.98 C 159.83 266.13 165.96 272.22 172.07 278.34 C 146.99 303.52 121.82 328.62 96.70 353.76 C 91.46 358.92 82.22 358.03 77.67 352.37 C 53.34 328.02 29.01 303.67 4.66 279.34 C -0.32 274.73 -0.63 265.97 4.20 261.16 C 29.25 236.11 54.30 211.06 79.35 186.02 Z" />
<path fill="#000000" opacity="1.00" d=" M 319.42 296.13 C 323.55 294.77 327.47 292.62 331.79 291.90 C 335.75 305.88 339.36 319.97 343.15 334.01 C 344.26 337.23 344.79 341.52 341.67 343.83 C 336.75 345.33 331.87 343.00 327.11 341.97 C 315.47 338.85 303.85 335.67 292.20 332.60 L 291.48 332.06 C 292.88 325.55 295.81 319.50 299.01 313.70 L 299.06 313.63 C 303.64 306.42 310.43 301.09 317.73 296.86 L 318.03 296.72 C 318.28 296.60 318.79 296.38 319.04 296.26 L 319.42 296.13 Z" />
</g>
</svg>
