<svg width="512pt" height="512pt" viewBox="0 0 512 512" version="1.1" xmlns="http://www.w3.org/2000/svg">
<g id="#000000ff">
<path d=" M 253.73 0.00 L 257.41 0.00 C 269.75 0.40 282.03 3.93 292.43 10.62 C 306.66 19.62 317.36 34.04 321.74 50.31 C 326.72 68.30 323.99 88.32 314.15 104.21 C 306.17 117.40 293.57 127.73 279.05 132.91 C 262.64 138.88 243.92 138.17 228.03 130.92 C 216.22 125.62 205.99 116.86 198.94 106.00 C 189.30 91.46 185.75 73.13 188.93 56.00 C 191.90 39.34 201.44 24.02 214.92 13.82 C 226.04 5.36 239.79 0.63 253.73 0.00 Z" />
<path d=" M 247.15 188.12 C 259.73 186.46 272.77 188.38 284.30 193.70 C 298.05 199.96 309.57 210.96 316.50 224.39 C 323.60 237.98 325.90 254.00 322.94 269.04 C 320.06 284.42 311.59 298.65 299.57 308.65 C 289.54 317.08 277.00 322.47 263.98 323.96 C 248.24 325.87 231.88 322.02 218.66 313.26 C 204.52 304.08 194.06 289.42 189.94 273.07 C 185.78 256.88 187.73 239.17 195.50 224.34 C 205.48 204.83 225.37 190.78 247.15 188.12 Z" />
<path d=" M 226.68 381.67 C 243.55 373.55 263.83 372.86 281.19 379.87 C 295.04 385.35 306.93 395.57 314.53 408.38 C 322.87 422.20 325.91 439.04 323.22 454.94 C 320.49 471.74 311.12 487.30 297.66 497.69 C 286.25 506.65 271.90 511.57 257.43 512.00 L 253.89 512.00 C 239.66 511.39 225.58 506.52 214.33 497.72 C 201.81 488.04 192.80 473.91 189.42 458.44 C 185.72 441.78 188.39 423.74 197.06 409.01 C 203.90 397.21 214.35 387.52 226.68 381.67 Z" />
</g>
</svg>
