<?xml version="1.0" encoding="UTF-8" ?>
<!DOCTYPE svg PUBLIC "-//W3C//DTD SVG 1.1//EN" "http://www.w3.org/Graphics/SVG/1.1/DTD/svg11.dtd">
<svg width="382pt" height="426pt" viewBox="0 0 382 426" version="1.1" xmlns="http://www.w3.org/2000/svg">
<g id="#000000ff">
<path fill="#000000" opacity="1.00" d=" M 0.00 0.00 L 358.00 0.00 C 358.00 23.95 357.94 47.90 357.98 71.86 C 365.98 71.88 373.99 71.83 382.00 71.89 L 382.00 143.98 C 374.00 144.02 366.00 143.99 358.00 144.00 C 358.00 238.00 358.00 332.00 358.00 426.00 L 0.00 426.00 L 0.00 0.00 M 23.98 24.01 C 23.99 150.00 24.01 276.00 24.00 402.00 C 127.33 402.00 230.67 402.00 334.00 402.00 C 334.00 331.33 334.00 260.67 334.00 190.00 C 326.00 190.00 318.00 190.00 310.00 190.00 C 309.99 195.67 310.00 201.33 310.00 207.00 C 222.01 207.00 134.02 207.00 46.03 207.00 C 46.10 154.05 45.89 101.11 46.14 48.16 C 118.08 48.03 190.01 48.22 261.95 48.07 C 261.96 40.04 261.95 32.02 261.95 24.00 C 182.63 24.00 103.30 24.00 23.98 24.01 M 286.12 48.21 C 285.94 64.14 286.10 80.07 286.04 95.99 C 270.13 96.02 254.22 95.97 238.31 96.02 C 238.45 104.19 238.08 112.37 238.50 120.53 C 254.30 120.38 270.10 120.65 285.89 120.39 C 286.25 136.28 285.94 152.18 286.05 168.06 C 293.93 168.14 301.81 168.19 309.68 168.04 C 309.64 152.26 309.75 136.48 309.62 120.71 C 325.40 120.20 341.21 120.65 357.00 120.49 C 357.00 112.33 357.00 104.16 357.00 96.00 C 341.22 96.00 325.45 96.01 309.68 95.99 C 309.64 80.07 309.75 64.14 309.63 48.21 C 301.79 48.08 293.95 48.09 286.12 48.21 Z" />
<path fill="#000000" opacity="1.00" d=" M 46.00 224.02 C 133.92 224.00 221.83 223.96 309.74 224.04 C 309.40 233.39 310.19 242.73 309.69 252.07 C 309.68 294.71 309.67 337.34 309.69 379.98 C 221.80 380.02 133.92 379.99 46.03 380.00 C 46.02 328.00 46.05 276.01 46.00 224.02 Z" />
</g>
</svg>
