<?xml version="1.0" encoding="UTF-8" ?>
<!DOCTYPE svg PUBLIC "-//W3C//DTD SVG 1.1//EN" "http://www.w3.org/Graphics/SVG/1.1/DTD/svg11.dtd">
<svg width="412pt" height="498pt" viewBox="0 0 412 498" version="1.1" xmlns="http://www.w3.org/2000/svg">
<g id="#00000081">
<path fill="#000000" opacity="0.51" d=" M 29.76 0.00 L 200.04 0.00 L 198.70 0.72 C 196.80 0.88 194.91 1.00 193.01 1.02 C 140.35 0.98 87.69 1.00 35.04 1.01 C 32.64 0.97 30.24 0.76 27.85 0.56 L 29.76 0.00 Z" />
<path fill="#000000" opacity="0.51" d=" M 411.04 122.47 L 412.00 123.80 L 412.00 268.97 L 411.23 266.96 C 410.69 256.32 411.15 245.65 411.00 234.99 C 411.03 197.49 410.94 159.98 411.04 122.47 Z" />
<path fill="#000000" opacity="0.51" d=" M 0.00 231.19 L 0.92 229.30 C 0.99 278.12 1.17 326.94 0.83 375.75 L 0.00 373.84 L 0.00 231.19 Z" />
<path fill="#000000" opacity="0.51" d=" M 212.58 497.42 C 215.06 497.20 217.55 496.99 220.05 496.97 C 269.01 497.03 317.98 496.98 366.95 497.00 C 372.24 497.03 377.55 496.72 382.82 497.34 L 384.66 498.00 L 214.51 498.00 L 212.58 497.42 Z" />
</g>
<g id="#000000ff">
<path fill="#000000" opacity="1.00" d=" M 9.60 9.59 C 14.42 4.54 21.09 1.82 27.85 0.56 C 30.24 0.76 32.64 0.97 35.04 1.01 C 87.69 1.00 140.35 0.98 193.01 1.02 C 194.91 1.00 196.80 0.88 198.70 0.72 C 208.98 1.23 218.65 7.61 223.38 16.72 C 226.14 21.66 227.10 27.38 226.97 32.98 C 226.94 77.00 226.98 121.01 226.95 165.03 C 226.95 170.51 225.52 175.99 222.68 180.70 C 217.35 190.00 206.73 195.82 196.04 195.60 C 141.01 195.58 85.97 195.64 30.94 195.57 C 18.01 195.65 5.73 186.45 2.14 174.04 C 0.33 168.56 0.80 162.73 0.78 157.05 C 0.79 115.03 0.77 73.00 0.79 30.97 C 0.76 23.05 4.04 15.22 9.60 9.59 M 57.27 35.14 C 57.38 46.39 57.35 57.63 57.28 68.88 C 58.37 68.86 59.45 68.84 60.54 68.82 C 61.93 60.17 65.47 51.14 72.79 45.84 C 80.49 41.01 90.02 41.95 98.70 42.08 C 98.77 74.71 98.72 107.34 98.73 139.97 C 98.41 144.88 99.53 150.83 95.61 154.61 C 91.73 158.48 85.85 157.73 80.86 158.17 C 80.84 158.84 80.81 160.19 80.79 160.86 C 102.75 161.30 124.71 160.96 146.67 161.04 C 146.67 160.28 146.68 158.75 146.68 157.99 C 141.74 157.95 136.20 158.29 132.17 154.90 C 128.50 152.13 128.83 147.04 128.72 142.94 C 128.68 109.30 128.70 75.66 128.72 42.02 C 134.40 42.09 140.12 41.76 145.78 42.41 C 151.06 42.90 155.62 46.12 159.13 49.91 C 163.77 55.22 165.57 62.26 167.41 68.89 C 168.19 68.87 169.73 68.84 170.50 68.82 C 170.44 57.60 170.43 46.39 170.51 35.17 C 132.76 35.17 95.02 35.24 57.27 35.14 Z" />
<path fill="#000000" opacity="1.00" d=" M 237.50 97.50 C 286.01 97.64 334.53 97.49 383.04 97.58 C 396.61 98.34 408.69 109.08 411.04 122.47 C 410.94 159.98 411.03 197.49 411.00 234.99 C 411.15 245.65 410.69 256.32 411.23 266.96 C 410.09 275.12 405.58 282.77 398.86 287.56 C 392.95 292.20 385.26 293.36 377.96 293.45 C 324.97 293.45 271.97 293.42 218.97 293.47 C 213.32 293.48 207.55 292.75 202.37 290.36 C 191.61 285.99 184.76 274.44 184.56 263.03 C 184.51 243.52 184.63 224.01 184.50 204.50 C 191.00 204.61 197.50 204.52 204.00 204.59 C 221.76 205.19 238.15 188.80 237.59 171.04 C 237.48 146.53 237.64 122.02 237.50 97.50 M 252.83 133.53 C 250.41 136.11 248.44 139.29 248.51 142.95 C 248.43 175.30 248.52 207.65 248.47 240.00 C 248.53 244.34 247.90 249.00 250.05 252.98 C 251.33 254.85 253.15 256.25 254.82 257.76 C 261.99 258.18 267.33 253.02 273.34 250.09 L 273.38 249.79 C 275.68 248.58 277.96 247.33 280.27 246.13 L 280.41 245.80 C 284.07 244.12 287.45 241.93 290.91 239.89 C 293.70 238.34 296.41 236.67 299.20 235.13 L 299.44 234.81 C 301.85 233.66 304.21 232.36 306.47 230.90 C 308.49 229.74 310.51 228.58 312.50 227.37 C 314.35 226.19 316.26 225.09 318.23 224.11 L 318.42 223.81 C 320.16 222.94 321.84 221.97 323.46 220.88 C 327.59 218.85 331.52 216.44 335.57 214.24 L 335.43 213.83 C 337.94 212.87 340.29 211.55 342.56 210.12 C 343.53 209.52 344.51 208.92 345.50 208.32 C 347.37 207.20 349.27 206.15 351.23 205.17 L 351.45 204.84 C 355.77 203.05 360.39 199.15 359.59 193.95 C 359.14 189.10 354.19 186.87 350.54 184.62 C 347.89 183.00 345.20 181.45 342.36 180.21 L 342.39 179.87 C 340.68 179.06 339.01 178.18 337.38 177.24 L 337.22 176.84 C 334.96 175.61 332.70 174.37 330.40 173.22 L 330.23 172.90 C 325.88 170.66 321.91 167.79 317.50 165.67 C 315.52 164.42 313.50 163.24 311.42 162.17 L 311.27 161.84 C 308.99 160.62 306.71 159.38 304.40 158.22 L 304.27 157.92 C 303.07 157.28 301.89 156.62 300.71 155.96 C 298.06 154.19 295.27 152.65 292.47 151.14 C 290.23 149.62 287.86 148.33 285.42 147.20 L 285.27 146.84 C 282.98 145.62 280.70 144.38 278.39 143.21 L 278.33 142.88 C 277.12 142.26 275.92 141.62 274.73 140.98 C 272.12 139.12 269.30 137.60 266.40 136.24 L 266.25 135.32 C 265.77 135.42 264.79 135.62 264.31 135.73 L 264.51 134.08 C 263.97 134.27 262.90 134.66 262.36 134.85 L 262.64 133.56 C 259.42 132.45 256.01 132.11 252.83 133.53 Z" />
<path fill="#000000" opacity="1.00" d=" M 8.96 213.95 C 14.72 207.49 23.56 204.77 31.99 204.56 C 79.50 204.51 127.02 204.63 174.53 204.50 C 174.34 226.00 174.50 247.49 174.44 268.99 C 174.20 283.61 185.03 297.41 199.22 300.81 C 208.48 302.92 218.05 301.79 227.46 302.14 C 227.42 324.74 227.46 347.35 227.45 369.96 C 227.40 381.26 220.71 392.32 210.44 397.20 C 204.81 400.24 198.27 400.67 192.00 400.46 C 138.34 400.44 84.68 400.43 31.02 400.47 C 25.07 400.55 19.23 398.56 14.21 395.46 C 7.36 390.98 2.74 383.64 0.83 375.75 C 1.17 326.94 0.99 278.12 0.92 229.30 C 2.60 223.75 4.59 217.99 8.96 213.95 M 49.90 242.40 C 49.54 242.34 48.83 242.21 48.47 242.14 L 48.61 243.11 C 44.78 244.10 42.34 247.44 40.07 250.42 L 39.72 250.78 C 38.19 254.00 37.29 257.45 36.98 261.00 C 37.41 263.79 37.86 266.59 38.57 269.33 L 39.70 269.43 C 39.62 269.82 39.46 270.58 39.38 270.97 C 43.62 277.00 50.44 281.49 57.99 281.38 C 64.53 280.74 70.92 277.43 74.64 271.91 L 74.22 270.28 L 75.99 270.58 C 75.76 270.04 75.29 268.96 75.06 268.42 L 76.40 268.54 C 77.83 263.49 78.28 257.92 75.99 253.04 C 73.81 248.94 71.07 244.69 66.42 243.15 L 66.39 242.65 C 61.09 240.72 55.12 239.55 49.90 242.40 M 129.10 314.42 C 128.88 314.46 128.45 314.56 128.23 314.61 C 123.95 317.21 121.51 321.65 117.96 325.03 C 112.54 331.24 107.52 337.82 101.52 343.50 C 101.00 343.52 99.94 343.56 99.41 343.58 C 95.53 338.82 91.49 334.22 87.14 329.88 C 86.38 329.04 85.63 328.20 84.88 327.36 C 84.50 327.47 83.73 327.70 83.35 327.81 L 83.64 326.54 C 80.02 325.36 76.23 325.35 72.63 326.57 L 72.51 327.05 C 69.94 328.72 67.75 330.87 65.87 333.27 C 65.25 334.16 64.61 335.06 63.97 335.95 C 61.73 337.94 59.67 340.14 58.07 342.68 C 55.98 344.91 53.72 347.04 52.08 349.65 C 46.99 354.94 42.80 361.06 37.02 365.68 C 88.36 365.33 139.71 365.75 191.05 365.47 C 190.51 365.19 189.43 364.62 188.89 364.34 C 186.65 361.52 184.00 359.04 181.85 356.15 C 179.24 352.57 175.41 350.08 173.08 346.28 C 170.06 342.22 166.72 338.41 163.01 334.96 C 162.39 334.05 161.77 333.14 161.17 332.23 C 158.79 329.61 156.01 327.32 154.09 324.31 C 151.61 321.06 149.25 317.53 145.64 315.42 C 140.87 312.13 134.13 311.09 129.10 314.42 Z" />
<path fill="#000000" opacity="1.00" d=" M 237.78 302.46 C 285.19 302.40 332.59 302.45 380.00 302.43 C 389.03 302.19 398.06 306.19 403.88 313.12 C 408.59 318.58 411.23 325.76 411.21 332.97 C 411.14 378.01 411.24 423.06 411.16 468.10 C 410.91 483.21 397.90 496.56 382.82 497.34 C 377.55 496.72 372.24 497.03 366.95 497.00 C 317.98 496.98 269.01 497.03 220.05 496.97 C 217.55 496.99 215.06 497.20 212.58 497.42 C 202.69 496.13 193.31 490.37 188.68 481.39 C 185.26 475.54 184.79 468.60 185.00 461.98 C 185.05 444.49 185.03 426.99 185.02 409.50 C 195.27 408.93 205.91 410.88 215.83 407.53 C 225.63 404.13 233.53 395.87 236.48 385.92 C 238.19 380.78 237.85 375.30 237.84 369.97 C 237.79 347.46 237.90 324.96 237.78 302.46 M 254.72 347.31 C 254.66 375.83 254.71 404.34 254.69 432.86 C 243.75 430.43 231.40 433.31 223.70 441.73 C 220.52 445.14 218.20 450.28 220.12 454.88 C 221.72 459.21 226.29 461.40 230.53 462.33 C 238.42 463.79 246.75 461.72 253.45 457.44 C 258.60 454.02 263.46 448.69 263.02 442.08 C 263.14 419.59 263.04 397.10 263.07 374.61 C 288.34 372.07 313.63 369.57 338.93 367.33 C 338.95 384.72 338.90 402.11 338.95 419.50 C 328.34 416.84 316.44 419.88 308.61 427.55 C 305.16 431.04 302.40 436.30 304.20 441.25 C 306.34 446.76 312.63 449.00 318.09 449.33 C 328.04 449.73 338.53 445.65 344.57 437.53 C 347.15 434.27 347.33 429.96 347.32 425.98 C 347.29 396.79 347.33 367.59 347.29 338.40 C 316.44 341.42 285.58 344.40 254.72 347.31 Z" />
</g>
</svg>
