<?xml version="1.0" encoding="UTF-8" ?>
<!DOCTYPE svg PUBLIC "-//W3C//DTD SVG 1.1//EN" "http://www.w3.org/Graphics/SVG/1.1/DTD/svg11.dtd">
<svg width="613pt" height="541pt" viewBox="0 0 613 541" version="1.1" xmlns="http://www.w3.org/2000/svg">
<g id="#000000ff">
<path fill="#000000" opacity="1.00" d=" M 14.79 7.66 C 21.78 2.72 30.42 0.52 38.93 0.69 C 217.64 0.69 396.34 0.68 575.05 0.70 C 590.63 0.05 605.73 10.79 610.22 25.71 C 612.52 32.56 611.96 39.87 612.02 46.98 C 612.02 199.66 612.04 352.35 612.01 505.04 C 612.24 522.16 598.46 538.15 581.52 540.50 L 582.66 541.00 L 32.79 541.00 C 21.76 539.35 11.28 533.28 5.47 523.60 C 1.92 518.51 0.76 512.30 0.00 506.26 L 0.00 33.52 C 1.05 29.21 1.80 24.74 3.86 20.77 C 6.31 15.56 10.40 11.30 14.79 7.66 M 72.02 72.63 C 72.03 120.78 72.01 168.93 72.03 217.08 C 228.04 217.09 384.05 217.14 540.05 217.06 C 540.06 168.93 540.09 120.80 540.04 72.67 C 384.04 72.53 228.03 72.61 72.02 72.63 M 85.48 289.69 C 79.36 291.54 73.63 296.35 72.42 302.86 C 70.20 312.55 77.24 323.09 86.92 325.03 C 91.09 325.57 95.72 325.66 99.37 323.25 C 109.49 317.41 111.72 301.10 102.68 293.32 C 98.08 289.28 91.31 288.22 85.48 289.69 M 145.09 289.02 C 145.11 301.12 145.08 313.22 145.11 325.33 C 192.85 325.45 240.59 325.44 288.33 325.33 C 288.45 313.23 288.42 301.12 288.35 289.02 C 240.60 289.03 192.84 289.03 145.09 289.02 M 360.26 289.04 C 360.28 349.01 360.28 408.99 360.26 468.96 C 420.18 468.98 480.11 469.00 540.03 468.95 C 540.07 408.98 540.10 349.01 540.02 289.03 C 480.10 289.02 420.18 289.01 360.26 289.04 M 86.25 361.29 C 79.89 363.41 74.14 368.34 72.57 375.06 C 69.62 385.99 79.85 397.79 90.99 397.05 C 101.81 397.86 110.04 386.11 108.05 376.01 C 106.96 365.84 96.02 358.75 86.25 361.29 M 145.12 360.96 C 145.08 372.98 145.10 385.00 145.11 397.03 C 192.85 397.16 240.60 397.12 288.35 397.05 C 288.41 385.01 288.46 372.98 288.32 360.95 C 240.59 360.88 192.85 360.85 145.12 360.96 M 86.14 433.13 C 81.52 434.66 77.16 437.59 74.67 441.87 C 70.19 448.97 71.32 459.69 78.49 464.63 C 84.82 469.67 94.05 470.04 101.05 466.15 C 111.47 459.19 110.53 441.40 99.80 435.21 C 95.78 432.67 90.73 432.07 86.14 433.13 M 145.10 432.67 C 145.08 444.77 145.11 456.87 145.09 468.98 C 192.84 468.97 240.59 468.98 288.34 468.97 C 288.41 456.88 288.47 444.78 288.31 432.69 C 240.58 432.53 192.84 432.57 145.10 432.67 Z" />
<path fill="#000000" opacity="1.00" d=" M 251.59 108.63 C 287.89 108.79 324.21 108.85 360.51 108.60 C 360.39 132.69 360.43 156.79 360.49 180.88 C 324.19 180.94 287.88 180.99 251.58 180.85 C 251.76 156.78 251.74 132.70 251.59 108.63 Z" />
<path fill="#000000" opacity="1.00" d=" M 108.42 109.05 C 144.59 108.94 180.76 109.02 216.93 109.01 C 216.87 132.94 217.05 156.88 216.84 180.81 C 180.72 180.92 144.59 180.96 108.48 180.79 C 108.42 156.88 108.53 132.96 108.42 109.05 Z" />
<path fill="#000000" opacity="1.00" d=" M 396.50 180.86 C 396.63 156.80 396.50 132.74 396.56 108.68 C 432.83 108.77 469.10 108.80 505.37 108.66 C 505.21 132.75 505.43 156.83 505.26 180.91 C 469.00 180.90 432.75 181.01 396.50 180.86 Z" />
<path fill="#000000" opacity="1.00" d=" M 396.56 360.55 C 432.81 360.52 469.06 360.47 505.31 360.57 C 505.33 384.61 505.30 408.64 505.33 432.68 C 469.04 432.65 432.75 432.85 396.47 432.58 C 396.67 408.57 396.49 384.56 396.56 360.55 Z" />
</g>
</svg>
