<?xml version="1.0" encoding="UTF-8" ?>
<!DOCTYPE svg PUBLIC "-//W3C//DTD SVG 1.1//EN" "http://www.w3.org/Graphics/SVG/1.1/DTD/svg11.dtd">
<svg width="980pt" height="990pt" viewBox="0 0 980 990" version="1.1" xmlns="http://www.w3.org/2000/svg">
<g id="#ffffffff">
</g>
<g id="#000000ff">
<path fill="#000000" opacity="1.00" d=" M 176.53 4.25 C 208.71 -1.79 242.19 -0.09 273.86 7.98 C 308.05 16.71 339.68 34.62 365.25 58.88 C 389.64 81.60 408.70 109.94 420.89 140.95 C 426.99 156.67 431.89 173.11 432.36 190.08 C 433.48 219.01 432.67 248.02 434.94 276.91 C 436.12 288.70 440.56 299.89 445.44 310.59 C 448.47 316.66 451.41 322.93 455.78 328.18 C 472.01 345.59 488.84 362.43 505.46 379.47 C 622.80 499.13 741.52 617.43 859.70 736.26 C 885.59 762.37 911.51 788.46 936.81 815.16 C 948.49 827.85 960.63 840.28 970.42 854.53 C 977.75 864.70 978.55 877.63 980.00 889.66 L 980.00 895.53 C 979.26 910.77 975.60 925.95 968.64 939.57 C 960.65 954.84 947.74 967.17 932.96 975.83 C 914.41 986.56 892.22 991.78 870.92 988.20 C 864.07 987.03 856.93 986.53 850.67 983.27 C 842.01 979.03 834.75 972.57 827.36 966.50 C 810.80 952.12 795.05 936.86 779.28 921.62 C 750.24 893.37 721.55 864.76 692.83 836.18 C 595.29 739.04 497.97 641.70 400.28 544.71 C 375.49 520.23 350.83 495.61 325.42 471.77 C 317.28 464.49 309.44 456.62 299.86 451.23 C 279.32 440.75 256.18 434.69 233.03 435.94 C 202.26 438.27 171.13 433.42 142.08 423.21 C 106.46 410.40 74.46 387.85 50.18 358.83 C 25.91 330.01 9.37 294.88 2.06 257.95 C 0.62 250.06 0.18 242.04 0.09 234.03 C 0.01 217.68 -0.06 201.29 1.68 185.01 C 2.51 178.73 3.22 172.32 5.72 166.44 C 6.74 164.24 8.22 161.60 10.93 161.39 C 15.64 163.60 19.36 167.38 23.29 170.71 C 51.72 196.56 77.81 224.85 106.27 250.67 C 113.55 257.00 121.08 263.38 130.09 267.09 C 138.29 270.44 147.33 270.30 156.03 270.16 C 164.75 269.97 173.54 268.20 181.31 264.14 C 191.02 259.06 199.32 251.77 207.35 244.41 C 217.70 234.73 227.74 224.71 237.28 214.22 C 244.43 206.18 251.50 197.76 255.82 187.79 C 259.12 180.31 260.23 172.07 260.31 163.95 C 260.36 156.59 260.36 149.04 257.96 142.00 C 255.59 135.03 251.28 128.95 246.73 123.26 C 237.67 112.07 227.38 101.97 217.42 91.61 C 200.60 74.74 183.83 57.80 167.50 40.45 C 161.01 33.61 154.53 26.75 148.55 19.46 C 147.88 18.34 146.48 17.39 146.73 15.93 C 147.51 13.45 149.95 12.09 152.12 10.98 C 159.84 7.45 168.24 5.83 176.53 4.25 M 876.43 852.58 C 870.03 854.51 863.66 857.02 858.44 861.31 C 850.82 867.32 845.85 876.32 844.19 885.83 C 842.31 896.57 843.26 908.39 849.46 917.64 C 855.54 926.80 865.68 932.29 875.91 935.57 C 892.39 940.64 910.65 931.79 919.99 917.99 C 928.23 905.82 929.36 889.31 922.99 876.09 C 918.33 866.06 909.40 858.24 898.98 854.63 C 891.78 852.27 883.90 849.81 876.43 852.58 Z" />
</g>
</svg>
